<svg height="297.33334" viewBox="0 0 354.66666 297.33334" width="354.66666" xmlns="http://www.w3.org/2000/svg"><g transform="matrix(.13333333 0 0 -.13333333 0 297.33333)"><path d="m1737.73 429.73c-.31-8.32-13.82-16.179-40.46-23.519-26.37-7.301-63.01-13.633-110-18.981-46.68-5.671-101.02-10-163.01-13.011-61.99-3.321-128.67-5-200-5s-138.01 1.679-200 5c-61.682 3.011-116.022 7.34-163.01 13.011-46.988 5.348-83.672 11.68-110 18.981-26.68 7.34-40.16 15.199-40.512 23.519.352 8.321 13.832 16.168 40.512 23.508 26.328 7.313 63.012 13.832 110 19.492 46.988 5.321 101.328 9.5 163.01 12.5 61.99 3.321 128.67 5 200 5s138.01-1.679 200-5c61.99-3 116.33-7.179 163.01-12.5 46.99-5.66 83.63-12.179 110-19.492 26.64-7.34 40.15-15.187 40.46-23.508" fill="#e6e6e677" fill-rule="evenodd"/><path d="m1944.26 727.23c-6.68-18.011-19.85-34.339-39.49-48.992-19.69-14.687-43.52-27.5-71.53-38.508-27.65-10.671-57.15-19.339-88.47-26.019-31.02-6.992-61.18-11.832-90.51-14.492-7.35 28.672-13.01 58.832-16.99 90.511-3.68 31.68-5 62.34-4.03 91.989 1.02 30 5.16 56.679 12.5 80 7.35 23.359 18.52 41.172 33.52 53.511 21.64 16.329 43.16 23.168 64.49 20.508 21.33-3.008 39.84-12.687 55.51-29.019 15.66-15.981 25.66-36.168 30-60.508 24.33 3.668 46.83.859 67.5-8.481 20.31-9.332 35.31-23.671 45-43 9.65-19.339 10.51-41.839 2.5-67.5m-84.49 168.981c-5 27.027-14.85 50.859-29.54 71.519-14.64 20.981-32.65 37.15-53.98 48.48-21.33 11.02-44.34 15.67-68.98 14.02-24.34-1.99-48.52-12.18-72.5-30.5-19.69-16.019-34.85-38.679-45.51-68.011-10.67-29.34-17.66-62.66-21.02-100-3.32-37.66-3.47-77.149-.51-118.481 3.01-41.359 8.17-82.187 15.51-122.5-28.98-33.668-56.33-58.508-81.99-74.527-25.66-15.66-48.83-21.641-69.49-17.973-29.69 5.672-57.66 30.313-84.03 73.992-26.64 43.668-49.49 102.649-68.47 176.989 70.31 25.66 127.5 64.691 171.48 116.992 44.34 52.699 74.49 117.5 90.51 194.529 2.34 13.99-.66 26.14-8.98 36.49 4.64 35.35 6.83 68.98 6.48 101.01-.66 31.64-2.66 60-6.02 85-2.96 25.31-6.13 45.16-9.49 59.49-3.01 14.65-4.65 22.35-5 23.01-8.67 30.31-19.14 53.48-31.48 69.49-11.99 15.98-24.34 26.84-36.99 32.5-12.7 5.67-24.18 8.48-34.54 8.48-10.66-.31-18.63-1.33-23.98-2.97l-45.51-12.5c-7.34 6.99-15.97 11.84-25.97 14.49-10 2.66-20.2 2.66-30.51 0l-78.01-21.99c-16.02-4.69-27.85-13.86-35.51-27.5-7.65-13.67-9.49-28.67-5.51-45 5-16.01 14.34-27.85 28.01-35.51 13.67-7.65 28.52-9.49 44.49-5.5l78.01 21.99c10.35 3.01 19.18 8.16 26.53 15.51 6.99 7.34 11.83 16.01 14.49 26.01l45.51 12.5c10 2.31 18.47-.51 25.46-8.51 7.35-7.66 13.36-17.15 18.01-28.52 4.69-11.33 8.01-20.98 10-28.98.35-.67 1.84-7.5 4.49-20.51 3.01-13.01 6.02-30.82 9.03-53.48 2.65-22.34 4.33-48.01 5-77.03.66-28.98-1.17-59.49-5.51-91.48-10.35-6.33-16.99-15.82-20-28.52-27.66-133.98-106.02-219.14-235-255.472-128.98-35.66-240-3.359-333.012 96.992-9.328 9.34-20 14.149-31.988 14.5-20.352 25.352-37.66 50.5-51.988 75.5-14.692 25-26.532 47.82-35.512 68.48-9.34 20.67-16.172 37.34-20.512 50-4.328 13.01-6.476 19.69-6.476 20-2.352 8.01-4.492 18.01-6.532 30-1.64 12.34-1.32 23.67 1.02 34.02 1.988 10.32 7.852 17.15 17.5 20.51l45.512 12.5c7.34-7.03 15.968-11.83 25.968-14.53 9.692-2.66 19.848-2.66 30.508 0l78.012 22.03c16.02 4.65 27.852 13.83 35.512 27.5 7.648 13.64 9.488 28.64 5.508 45-5 15.98-14.34 27.81-28.008 35.47-13.672 7.7-28.524 9.53-44.492 5.51l-78.008-21.99c-10.672-3.01-19.492-8.17-26.532-15.51-6.992-7.34-11.832-15.98-14.492-25.98l-45.508-12.5c-5.66-1.36-12.96-4.69-21.992-10-8.976-5.35-17.5-13.67-25.508-25-7.96-11.36-12.96-27.03-15-47.03-1.992-20 1.02-45.31 9.032-75.98 0-.66 2.5-8 7.5-21.99 5-14.02 12.5-32.69 22.5-56.01 10.308-23.01 23.468-48.32 39.488-76.019 16.02-27.66 35.16-55.313 57.5-82.973-1.68-13.359 1.988-25.347 11.02-36.008 53.32-57.351 112.14-97 176.48-118.992 64.65-22.34 133.52-26.519 206.48-12.5 8.68-34.687 19.34-69.019 32.04-103.008 12.96-34.019 28.16-65.66 45.46-95 17.35-29.019 37.35-53.16 60-72.5 23.01-19.679 48.87-32.339 77.5-38 23.01-3.992 46.37-2.66 70 3.981 48.01 13.359 97.86 49.34 149.54 108.008 41.99 5.351 84.33 13.359 126.99 24.019 42.34 10.672 82.15 23.832 119.49 39.492 36.99 15.668 68.52 33.829 94.49 54.5 26.02 20.661 43.67 43.508 53.01 68.508 9.65 28.641 11.33 54.813 5 78.481-6.33 23.672-18.32 43.672-36.02 60-17.65 16.679-38.82 28.511-63.47 35.511-24.34 6.989-50 8.321-76.99 3.981" fill="#007fa3" fill-rule="evenodd"/><path d="m1854.26 706.211c-5.67-14.652-17.85-27.301-36.53-37.973-18.98-11.008-40.82-19.687-65.46-26.008-25-6.679-49.54-11.019-73.52-13.011-6.02 23.359-10 47.851-11.99 73.511-1.99 25.668-1.02 49.149 3.01 70.508 3.98 20.981 11.99 36.641 23.98 46.992 13.01 9.649 26.02 13.68 38.98 12 13.01-1.679 24.18-7.351 33.52-17 9.65-10 15.82-22.339 18.52-36.992 14.64 2.313 28.16.672 40.46-5 12.7-5.66 21.84-14.328 27.5-26.008 6.02-11.679 6.53-25.351 1.53-41.019" fill="#d71433" fill-rule="evenodd"/><g fill="#d71635"><path d="m146.84 1047.97 29.84 175.47-140.4691 23.9 6.25 36.88 325.3091-55.47-6.25-36.87-150.309 25.62-29.84-175.47 150.309-25.62-6.41-37.031-325.3090625 55.461 6.4101525 37.04z"/><path d="m465.59 1437.66-38.442 14.53-.777-1.57c3.75-6.48 6.641-13.98 8.75-22.5 2.07-8.43 3.199-17.3 3.43-26.56.199-9.29-.699-18.71-2.653-28.28-1.988-9.61-5.117-18.55-9.378-26.87-9.801-19.69-22.93-31.64-39.372-35.79-16.328-4.06-33.168-1.79-50.468 6.88-16.95 8.52-28.321 19.69-34.059 33.44-5.82 13.83-8.133 28.2-6.883 43.12 1.172 15 4.492 29.77 10 44.38 5.434 14.68 10.742 27.22 15.942 37.65l10.16 20.16-5.469 2.81c-11.25 5.63-20.633 8.32-28.133 8.13-7.578-.12-15-2.11-22.187-5.94-5.821-3.55-10.821-7.89-15-12.97-4.25-5-8.781-12.34-13.59-22.03-6.25-12.42-10.16-24.22-11.723-35.47-1.558-11.17-1.867-22.5-.937-34.06l-30.313 6.25c-1.636 25.7 4.461 52.5 18.282 80.31 5.55 10.94 11.718 20.82 18.601 29.69 6.867 8.83 14.527 15.78 22.969 20.78 9.68 6.02 20.781 9.1 33.281 9.22 12.418.08 25.859-3.44 40.309-10.63l140-70.15zm-60.469-68.6c6.008 12.19 8.59 27.07 7.649 44.69-.86 17.58-6.399 34.37-16.719 50.31l-41.403 20.78-2.027-4.06c-6.141-12.19-11.801-24.65-17.031-37.34-5.199-12.62-8.52-24.85-10-36.72-1.57-11.8-.512-22.46 3.121-32.03 3.559-9.61 11.168-17.31 22.809-23.13 11.57-5.86 22.031-7.11 31.41-3.75 9.371 3.32 16.761 10.39 22.191 21.25z"/><path d="m368.281 1702.46 114.219-100.47c7.809-6.79 15.16-11.52 22.031-14.22 6.879-2.73 13.199-3.9 19.059-3.59 5.941.39 11.488 2.19 16.719 5.31 5.312 3.13 10.242 7.35 14.851 12.66 5.5 6.25 10 13.28 13.43 21.09 3.519 7.81 5.711 15.94 6.57 24.38.93 8.51.352 17.22-1.719 26.09-1.992 8.83-5.632 17.66-10.941 26.41l-110.781 97.34 23.121 26.25 172.82-151.87-18.129-20.63-35 25.47-1.25-1.56c7.578-12.5 9.918-27.5 7.028-45-2.809-17.42-11.559-34.46-26.25-51.1-7.11-8.12-14.797-14.84-23.118-20.15-8.242-5.32-16.992-8.6-26.25-9.85-9.179-1.25-18.992-.11-29.382 3.44-10.387 3.63-21.25 10.39-32.5 20.31l-117.649 103.44z"/><path d="m644.531 1932.97c-13.203-9.18-21.09-18.24-23.59-27.19-2.582-8.87-1.019-17.42 4.68-25.62 1.879-2.74 4.34-5.32 7.348-7.82 3.051-2.5 6.562-4.22 10.621-5.15 4.07-.94 8.91-1.21 14.531-.78 5.551.39 12.039 2.22 19.539 5.47l33.899 13.74c13.132 5.4 24.613 8.44 34.531 9.07 9.89.62 18.441-.16 25.629-2.35 7.261-2.18 13.32-5.43 18.121-9.68 4.769-4.3 8.75-8.6 11.879-12.97 5.82-8.44 9.57-17.58 11.25-27.35 1.761-9.68 1.332-19.53-1.25-29.53-2.617-9.92-7.5-19.65-14.688-29.22-7.109-9.61-16.371-18.43-27.812-26.56-14.489-10-29.379-17.19-44.688-21.56-15.23-4.38-28.402-6.52-39.531-6.41l-11.09 31.88c16.129-2.19 31.641-1.17 46.559 3.12 15 4.26 27.23 9.73 36.722 16.41 13.75 9.45 21.789 20.04 24.219 31.72 2.379 11.64 1.012 21.17-4.07 28.59-1.68 2.38-3.75 5.04-6.25 7.97-2.5 3.01-5.86 5.47-10 7.34-4.18 1.96-9.211 3.05-15.149 3.29-5.863.19-12.89-1.33-21.101-4.54l-46.25-17.65c-10.5-4.07-19.879-6.37-28.121-6.88-8.199-.43-15.469.35-21.719 2.35-6.25 1.95-11.719 4.88-16.41 8.75-4.68 3.82-8.668 8.16-12.031 12.97-11.637 16.75-14.719 34.45-9.219 53.12 5.551 18.63 18.711 35.23 39.531 49.84 10.629 7.39 23.09 13.91 37.348 19.54 14.261 5.7 27.582 8.78 40 9.21l9.222-30.15c-8.671.94-19.769-.47-33.281-4.22-13.441-3.67-26.57-9.92-39.379-18.75z"/><path d="m1030 1896.05-18.75 36.57-1.72-.63c-1.48-7.42-4.3-14.96-8.44-22.65-4.059-7.74-9.141-15.12-15.149-22.19-6.062-6.99-13.05-13.4-20.941-19.22-7.93-5.74-16.211-10.31-24.84-13.75-20.551-8.13-38.25-8.28-53.129-.47-14.922 7.89-25.941 20.86-33.121 38.91-6.961 17.69-8.012 33.59-3.129 47.65 4.809 14.14 12.66 26.41 23.598 36.72 10.93 10.39 23.32 19.22 37.18 26.41 13.832 7.26 26.171 13.05 37.031 17.34l20.941 8.28-2.191 5.63c-4.68 11.76-9.918 20.08-15.621 25-5.739 5-12.5 8.36-20.309 10.15-6.68 1.33-13.359 1.49-20 .47-6.57-.93-14.851-3.39-24.851-7.34-12.93-5.12-23.668-11.33-32.18-18.59-8.641-7.31-16.488-15.59-23.598-24.85l-18.441 25c15.941 20.31 38.398 36.13 67.351 47.5 11.329 4.46 22.539 7.7 33.59 9.69 11.02 2.07 21.41 2.11 31.098.16 11.242-2 21.48-7.11 30.781-15.32 9.371-8.12 17.031-19.76 22.961-34.84l57.499-145.63zm-90.781-10.62c12.691 5 24.57 14.3 35.621 27.97 11.019 13.75 18.051 30 21.101 48.75l-17.031 43.12-4.219-1.72c-12.742-5-25.281-10.46-37.66-16.4-12.301-5.94-22.929-12.81-31.871-20.63-8.988-7.81-15.32-16.52-19.07-26.09-3.75-9.49-3.238-20.27 1.57-32.34 4.68-12.11 11.602-20 20.781-23.75 9.258-3.75 19.528-3.4 30.778 1.09z"/><path d="m1220.59 2133.01c-5.63 2.19-11.25 3.75-16.88 4.69-5.55.93-10.74.97-15.62.15-6.57-1.05-12.58-3.87-17.97-8.44-5.43-4.61-10.12-10.46-14.07-17.65-3.86-7.11-6.99-15.08-9.37-23.91-2.42-8.87-3.83-17.89-4.22-27.03l22.03-132.66-34.53-5.62-37.5 226.87 27.03 4.54 12.03-49.07 2.03.32c1.02 7.81 2.86 15.46 5.47 22.96 2.7 7.58 6.33 14.46 10.94 20.63 4.57 6.13 10.04 11.33 16.41 15.62 6.33 4.38 13.94 7.27 22.81 8.75 6.25 1.02 13.01 1.02 20.31 0 7.27-1.05 12.66-2.96 16.1-5.78z"/><path d="m1289.88 1976.21 125.94 167.34-116.56 2.97.78 29.53 157.03-4.06-.78-29.06-126.88-168.28 127.5-3.28-.78-29.53-167.03 4.37z"/><path d="m1567.77 2131.05-37.65 7.97 3.75 18.13 39.68-3.28 21.41 66.56 26.09-5.31-14.06-68.13 52.66-10.94-4.85-22.96-52.65 10.93-32.5-156.09c-2.19-10.55-2.11-17.77.31-21.72 2.38-3.98 6.88-6.64 13.44-7.97 7.5-1.44 14.37-1.64 20.62-.62 6.33 1.05 12.19 2.73 17.5 5.15l1.57-27.34c-6.18-1.45-13.99-2.54-23.44-3.28-9.49-.7-19.65 0-30.47 2.19-10.43 2.18-18.28 5.39-23.59 9.53-5.32 4.18-8.91 9.02-10.79 14.53-1.87 5.39-2.61 11.17-2.18 17.34.39 6.25 1.25 12.27 2.5 18.13z"/><path d="m1879.45 2063.12c15.39-6.99 27.5-16.17 36.25-27.5 8.75-11.24 14.61-23.59 17.66-37.03 3.12-13.43 3.59-27.65 1.41-42.65-2.19-14.92-6.57-29.65-13.13-44.22-6.87-15.08-15.43-28.48-25.62-40.16-10.24-11.64-21.68-20.7-34.38-27.18-12.62-6.57-26.37-10.16-41.25-10.79-14.92-.62-30.39 2.74-46.41 10-20.43 9.18-35.15 21.18-44.21 35.94-9.07 14.69-12.62 29.49-10.63 44.38l-71.87-159.07-31.88 14.38 148.44 327.97 25-11.41-14.22-40.62 1.87-.78c6.02 3.74 12.97 7.22 20.79 10.46 7.89 3.21 16.32 5.36 25.31 6.41 8.94 1.02 18.2 1.02 27.81 0 9.69-1.05 19.38-3.75 29.06-8.13zm-20.47-23.12c-14.6 6.56-30 8.75-46.25 6.56-16.17-2.18-31.83-8.83-47.03-19.84l-30.15-66.88c-1.49-10.11-1.1-19.68 1.09-28.75 2.19-8.98 5.55-17.38 10.16-25.31 4.68-7.89 10.31-14.84 16.87-20.78 6.64-5.94 13.99-10.7 22.03-14.38 10.63-4.76 20.82-6.79 30.63-6.09 9.76.63 19.06 3.56 27.81 8.75 8.75 5.12 16.76 12.11 24.06 20.94 7.27 8.75 13.52 18.9 18.75 30.47 5 10.93 8.48 22.11 10.47 33.59 2.07 11.56 2.19 22.5.31 32.81-1.87 10.32-5.93 19.73-12.18 28.29-6.17 8.51-15 15.39-26.57 20.62z"/><path d="m2139.34 1843.4c-2.31 5.62-5 10.7-8.13 15.31-3.12 4.69-6.68 8.52-10.62 11.56-5.32 4.07-11.53 6.49-18.6 7.35-6.99.82-14.37.19-22.19-1.88-7.81-1.99-15.78-5.12-23.9-9.37-8.05-4.3-15.59-9.38-22.66-15.32l-81.87-106.71-27.82 21.4 140 182.5 21.88-16.72-27.5-42.65 1.56-1.1c6.45 4.57 13.32 8.48 20.63 11.72 7.26 3.21 14.72 5.24 22.34 6.1 7.58.93 15.16.5 22.66-1.25 7.5-1.68 14.76-5.24 21.87-10.63 5-3.98 9.61-8.98 13.91-15 4.26-6.05 6.56-11.25 6.87-15.62z"/><path d="m2157.62 1542.03 28.43 29.69-1.25 1.4c-7.3-.93-15.27-.7-23.9.63-8.67 1.37-17.31 3.75-25.94 7.19-8.55 3.44-16.87 7.97-25 13.59-8.12 5.55-15.23 11.88-21.25 19.06-14.3 16.68-20.12 33.4-17.5 50.16 2.58 16.68 11.29 31.29 26.09 43.91 14.38 12.26 28.99 18.36 43.91 18.28 15 0 29.14-3.52 42.5-10.47 13.32-6.88 25.63-15.7 36.88-26.41 11.32-10.7 20.82-20.54 28.43-29.53l14.53-17.03 4.69 4.06c9.57 8.13 15.78 15.71 18.6 22.66 2.81 6.99 3.82 14.57 3.12 22.81-.94 6.56-2.97 12.81-6.09 18.75-3.05 5.94-8.05 12.97-15 21.1-9.07 10.62-18.44 18.78-28.13 24.53-9.69 5.82-20.08 10.54-31.09 14.21l17.65 25.63c24.38-8.55 46.61-24.65 66.72-48.28 8.01-9.3 14.73-18.83 20.16-28.59 5.51-9.81 8.94-19.65 10.31-29.54 1.76-11.25.31-22.54-4.37-33.9-4.69-11.45-13.24-22.5-25.63-33.13l-119.06-101.56zm-39.69 82.5c8.83-10.39 21.56-18.59 38.12-24.53 16.57-5.94 34.22-7.27 52.97-4.06l35.16 30.15-2.81 3.44c-8.87 10.43-18.09 20.47-27.66 30.16-9.61 9.69-19.61 17.46-30 23.28-10.31 5.94-20.59 9.1-30.78 9.53-10.23.51-20.27-3.44-30.16-11.88-9.92-8.43-15.15-17.57-15.78-27.5-.54-9.88 3.13-19.41 10.94-28.59z"/><path d="m2385.43 1439.22 110.47-26.56 18.75-38.13-141.88 35.63-62.34-141.41-18.75 38.13 49.22 111.71-117.81 27.82-18.6 38.12 149.06-36.87 59.54 133.75 18.75-38.13z"/><path d="m2328.32 1186.09-9.37 33.75 221.56 61.88 9.37-33.75zm291.09 125.32c6.45 1.75 12.86 1.09 19.22-2.03 6.45-3.13 10.63-8.13 12.5-15 1.76-6.37.82-12.9-2.81-19.54-3.67-6.56-8.71-10.74-15.16-12.5-6.79-1.87-13.24-.89-19.37 2.97-6.06 3.83-9.96 8.95-11.72 15.31-1.87 6.88-1.17 13.21 2.19 19.07 3.32 5.93 8.36 9.84 15.15 11.72z"/><path d="m2563.01 1065.27c-1.8 15.94-5.94 27.19-12.5 33.75-6.49 6.49-14.65 9.18-24.53 8.13-3.36-.39-6.84-1.29-10.47-2.66-3.56-1.44-6.8-3.75-9.69-6.87-2.81-3.13-5.39-7.23-7.66-12.35-2.3-5.07-3.82-11.72-4.53-19.84l-4.22-36.25c-1.56-14.14-4.49-25.7-8.75-34.692-4.18-8.937-8.98-16.09-14.37-21.398-5.43-5.391-11.17-9.141-17.19-11.25-6.05-2.192-11.68-3.602-16.87-4.219-10.32-1.019-20.16.078-29.53 3.277-9.38 3.122-17.82 8.282-25.32 15.473-7.42 7.109-13.67 16.051-18.75 26.869-5 10.86-8.24 23.24-9.68 37.19-1.88 17.5-1.06 34.02 2.5 49.53 3.51 15.43 7.96 27.97 13.28 37.66l33.28-5.63c-9.69-13.01-16.25-27.07-19.69-42.19-3.44-15.19-4.53-28.59-3.28-40.15 1.76-16.56 7.19-28.67 16.25-36.41 9.06-7.81 18.05-11.17 27.03-10.15 3.01.308 6.41.859 10.16 1.558 3.82.743 7.57 2.5 11.25 5.313 3.75 2.739 7.07 6.559 10 11.559 3 5 5.04 11.96 6.09 20.78l7.03 48.91c1.33 11.25 3.79 20.63 7.35 28.13 3.51 7.42 7.69 13.36 12.5 17.81 4.76 4.49 9.92 7.89 15.46 10.15 5.63 2.31 11.41 3.75 17.35 4.38 20.19 2.19 37.11-3.59 50.78-17.34 13.75-13.75 21.95-33.29 24.69-58.6 1.44-12.81 1.25-26.87-.63-42.19-1.87-15.31-5.58-28.468-11.09-39.53l-30.94 6.41c5 7.109 9.1 17.46 12.34 31.09 3.21 13.68 3.99 28.25 2.35 43.75z"/></g><path d="m483.75 9.73047h-29.691l-34.059 77.64843h-103.121l-30.938-77.64843h-27.972l92.5 230.92953h31.722zm-157.191 102.17953h82.66l-43.438 99.379zm284.14-102.17953-2.808 28.75003h-1.411c-2.808-4.5-6.558-8.711-11.25-12.6602-4.679-3.9805-9.921-7.4609-15.621-10.4687-5.629-3.0508-11.8-5.42972-18.437-7.19144-6.684-1.75-13.281-2.64844-19.844-2.64844-15.43 0-26.988 4.44922-34.687 13.43748-7.621 9.0625-11.411 20.3516-11.411 33.9024 0 13.1992 3.36 23.789 10.161 31.7187 6.757 8.0117 15.039 13.9805 24.839 17.9687 9.77 3.941 20.079 6.481 30.942 7.66 10.816 1.133 20.308 1.711 28.437 1.711h15.782v4.219c0 8.832-1.25 15.633-3.75 20.32-2.422 4.68-5.942 8.633-10.621 11.871-3.989 2.578-8.25 4.41-12.821 5.469-4.488 1.012-10.469 1.563-17.969 1.563-9.8 0-18.429-1.332-25.929-3.903-7.422-2.5-14.61-5.898-21.571-10.16l-5.621 21.09c15.621 9.07 34.262 13.601 55.942 13.601 8.629 0 16.789-.781 24.527-2.351 7.692-1.481 14.453-4.059 20.313-7.809 6.757-4.179 12.109-10.121 16.089-17.808 3.95-7.742 5.942-17.313 5.942-28.75v-109.53153zm-62.027 16.39843c9.566 0 19.726 3.0117 30.469 9.0703 10.699 6.1328 19.449 14.9219 26.25 26.4024v32.5h-3.121c-9.61 0-19.18-.3907-28.75-1.0899-9.5-.7422-18.211-2.5-26.098-5.3125-7.813-2.7383-14.184-6.7187-19.063-12.039-4.918-5.2305-7.339-12.4219-7.339-21.5586 0-9.0625 2.5-16.0118 7.5-20.7813 5.07-4.8008 11.789-7.1914 20.152-7.1914z" fill="#0080a5"/><path d="m808.441 141.289c-5.429 3.941-13.132 7.5-23.132 10.621-10 3.211-20.079 4.852-30.149 4.852-10.238 0-18.91-1.801-26.101-5.313-7.11-3.437-12.969-8.09-17.649-13.91-4.609-5.859-7.969-12.578-10.16-20.16-2.109-7.609-3.129-15.469-3.129-23.5899 0-9.1797 1.289-17.9688 3.91-26.4102 2.578-8.3594 6.41-15.6992 11.41-22.0273 5-6.25 11.129-11.25 18.438-15 7.383-3.75 15.973-5.6211 25.781-5.6211 9.371 0 18.981 1.9492 28.899 5.9297 9.89 3.9492 18.132 8.9882 24.691 15.1601l4.84-22.8086c-6.559-4.1797-15.539-8.1328-26.871-11.8828-11.25-3.74999-23.278-5.61718-36.098-5.61718-13.551 0-25.422 2.33984-35.621 7.02738-10.121 4.6914-18.52 10.9414-25.16 18.75-6.68 7.8125-11.68 16.8711-15 27.1914-3.36 10.3906-5 21.4414-5 33.1211 0 11.2504 1.57 21.9184 4.691 32.0274 3.129 10.203 8.047 19.223 14.848 27.031 6.75 7.82 15.391 13.949 25.93 18.442 10.511 4.57 23.132 6.878 37.812 6.878 11.141 0 22.078-1.332 32.82-3.91 10.7-2.5 19.368-5.898 25.938-10.16z" fill="#0080a5"/><path d="m970.781 9.73047v106.39853c0 14.262-3.203 24.383-9.531 30.32-6.25 5.93-14.301 8.903-24.059 8.903-5.863 0-11.64-.942-17.351-2.813-5.738-1.879-11.051-4.648-15.93-8.277-4.93-3.563-9.219-7.973-12.969-13.282-3.671-5.242-6.531-11.21-8.601-17.968v-103.28153h-24.531v259.05853h24.531v-128.129c3.012 9.77 9.57 18.129 19.691 25 10.199 6.879 23.129 10.32 38.75 10.32 7.379 0 14.418-1.019 21.098-2.968 6.641-1.992 12.422-5.242 17.34-9.692 4.883-4.371 8.793-10.23 11.722-17.5 2.887-7.191 4.368-16.05 4.368-26.558v-109.53153z" fill="#0080a5"/><path d="m1120.59 175.98c20.5 0 36.32-5.242 47.5-15.628 11.25-10.313 16.87-24.961 16.87-43.903 0-3.988-.27-7.969-.78-12.039-.43-4.058-1.21-7.0311-2.34-8.8983h-117.97v-3.6015c0-8.8594 1.13-17.4219 3.43-25.6211 2.39-8.1289 5.94-15.3086 10.63-21.5586s10.55-11.25 17.66-15c7.07-3.75 15.5-5.6289 25.31-5.6289 5.62 0 11.09.6289 16.4 1.8789 5.4 1.25 10.55 2.8515 15.47 4.8398 4.89 2.0703 9.42 4.2617 13.6 6.5586 4.25 2.2695 8.01 4.6094 11.25 7.0313l4.22-20c-3.05-1.8711-6.8-3.8985-11.25-6.0899-4.38-2.1914-9.3-4.2187-14.69-6.0898-5.31-1.8789-11.21-3.44144-17.66-4.69144-6.36-1.32812-13.08-2.02734-20.15-2.02734-13.05 0-24.61 2.25781-34.69 6.71878-10 4.5703-18.4 10.7812-25.16 18.5898-6.79 7.8906-11.95 16.9492-15.47 27.1914-3.43 10.3086-5.15 21.0078-5.15 32.1875 0 11.4418 1.79 22.3398 5.47 32.6528 3.63 10.386 8.94 19.57 15.93 27.5 6.96 8.007 15.63 14.257 25.94 18.75 10.39 4.57 22.27 6.878 35.63 6.878zm-1.1-19.531c-15.31 0-27.26-4.07-35.78-12.187-8.55-8.051-14.33-18.09-17.34-30.16h95.47c.31 1.128.46 2.187.46 3.128v3.122c0 5.82-1.21 10.98-3.59 15.468-2.3 4.571-5.43 8.36-9.37 11.41-3.99 3-8.56 5.309-13.75 6.872-5.12 1.558-10.47 2.347-16.1 2.347z" fill="#0080a5"/><path d="m1342.66 9.73047v106.39853c0 13.953-3.21 23.953-9.54 30-6.24 6.141-14.29 9.223-24.06 9.223-5.86 0-11.64-.942-17.34-2.813-5.74-1.879-11.06-4.648-15.94-8.277-4.92-3.563-9.22-7.973-12.97-13.282-3.67-5.242-6.52-11.21-8.59-17.968v-103.28153h-24.53v160.92953h19.22l2.81-30h1.4c3.01 9.77 9.77 18.129 20.32 25 10.51 6.879 23.59 10.32 39.22 10.32 7.38 0 14.41-1.019 21.09-2.968 6.64-1.992 12.42-5.242 17.34-9.692 4.89-4.371 8.79-10.23 11.72-17.5 2.89-7.191 4.38-16.05 4.38-26.558v-109.53153z" fill="#0080a5"/><path d="m1419.02 84.2617h118.281v18.2773h-118.281z" fill="#0080a5"/><path d="m1597.97 240.66c7.38.512 16.09.942 26.09 1.25 10.08.391 19.38.629 27.82.629 20.7 0 37.38-5.117 50-15.309 12.57-10.121 18.9-25.121 18.9-45 0-9.3-1.95-17.742-5.78-25.32-3.87-7.609-9.84-14.058-17.97-19.371 13.95-4.687 24.88-12.109 32.81-22.187 7.89-10 11.88-22.7309 11.88-38.1215 0-9.8086-1.8-19.0313-5.31-27.6602-3.44-8.6719-8.83-16.25-16.1-22.8086-7.19-6.4922-16.17-11.6406-26.87-15.4726-10.74-3.82816-23.36-5.77738-37.82-5.77738-11.36 0-21.99.42969-31.87 1.25-9.8.85937-18.4 1.82812-25.78 2.96875zm56.72-212.0311c18.83 0 33.2 4.3828 43.12 13.1328 9.89 8.75 14.85 21.4766 14.85 38.2774 0 13.3203-4.5 23.9099-13.44 31.7229-8.99 7.808-24.06 11.718-45.31 11.718-5.12 0-10.16-.082-15.16-.16-5-.121-9.84-.269-14.53-.468v-93.1215c9.06-.75 19.22-1.1016 30.47-1.1016zm-9.22 114.8511c14.76 0 26.17 3.668 34.22 11.09 8.01 7.5 12.03 17.66 12.03 30.469 0 10.313-2.81 18.59-8.44 24.84-5.55 6.332-15.31 9.531-29.37 9.531-5.12 0-10.16-.07-15.16-.148-5-.121-9.84-.313-14.53-.633v-74.84c3.2-.238 6.64-.309 10.31-.309z" fill="#0080a5"/><path d="m1870.82 144.879c-3.75 2.07-7.5 3.75-11.25 5-3.67 1.25-7.27 1.883-10.78 1.883-4.69 0-9.14-1.332-13.28-3.91-4.18-2.5-8.05-6.012-11.56-10.473-3.56-4.367-6.68-9.488-9.38-15.309-2.62-5.859-4.61-11.871-5.94-18.121v-94.21853h-24.53v160.92953h19.22l2.81-35.308h1.41c1.56 5.386 3.67 10.546 6.41 15.468 2.69 4.879 5.97 9.141 9.84 12.809 3.83 3.75 8.2 6.723 13.12 8.91 4.89 2.262 10.47 3.441 16.72 3.441 4.46 0 9.14-.781 14.07-2.351 4.88-1.481 8.35-3.399 10.46-5.777z" fill="#0080a5"/><path d="m2011.37 9.73047-2.82 28.75003h-1.4c-2.81-4.5-6.56-8.711-11.25-12.6602-4.69-3.9805-9.92-7.4609-15.63-10.4687-5.62-3.0508-11.79-5.42972-18.43-7.19144-6.68-1.75-13.29-2.64844-19.85-2.64844-15.43 0-26.99 4.44922-34.69 13.43748-7.61 9.0625-11.4 20.3516-11.4 33.9024 0 13.1992 3.36 23.789 10.15 31.7187 6.76 8.0117 15.04 13.9805 24.85 17.9687 9.76 3.941 20.08 6.481 30.94 7.66 10.82 1.133 20.31 1.711 28.43 1.711h15.78v4.219c0 8.832-1.25 15.633-3.75 20.32-2.42 4.68-5.93 8.633-10.62 11.871-3.98 2.578-8.24 4.41-12.81 5.469-4.49 1.012-10.47 1.563-17.97 1.563-9.81 0-18.44-1.332-25.94-3.903-7.42-2.5-14.61-5.898-21.56-10.16l-5.63 21.09c15.63 9.07 34.26 13.601 55.94 13.601 8.63 0 16.8-.781 24.53-2.351 7.7-1.481 14.46-4.059 20.31-7.809 6.76-4.179 12.11-10.121 16.1-17.808 3.94-7.742 5.94-17.313 5.94-28.75v-109.53153zm-62.03 16.39843c9.57 0 19.72 3.0117 30.46 9.0703 10.71 6.1328 19.46 14.9219 26.25 26.4024v32.5h-3.12c-9.61 0-19.18-.3907-28.75-1.0899-9.49-.7422-18.2-2.5-26.09-5.3125-7.82-2.7383-14.18-6.7187-19.07-12.039-4.92-5.2305-7.34-12.4219-7.34-21.5586 0-9.0625 2.5-16.0118 7.5-20.7813 5.08-4.8008 11.8-7.1914 20.16-7.1914z" fill="#0080a5"/><path d="m2196.48 9.73047v106.39853c0 13.953-3.2 23.953-9.53 30-6.25 6.141-14.29 9.223-24.06 9.223-5.86 0-11.64-.942-17.34-2.813-5.75-1.879-11.06-4.648-15.94-8.277-4.92-3.563-9.22-7.973-12.97-13.282-3.67-5.242-6.52-11.21-8.59-17.968v-103.28153h-24.53v160.92953h19.21l2.82-30h1.4c3.01 9.77 9.77 18.129 20.32 25 10.5 6.879 23.59 10.32 39.21 10.32 7.39 0 14.42-1.019 21.1-2.968 6.64-1.992 12.42-5.242 17.34-9.692 4.88-4.371 8.79-10.23 11.72-17.5 2.89-7.191 4.38-16.05 4.38-26.558v-109.53153z" fill="#0080a5"/><path d="m2334.38 5.51172c-11.88 0-22.27 2.33984-31.1 7.02738-8.87 4.6914-16.21 10.8593-22.03 18.5898-5.86 7.7031-10.23 16.6016-13.13 26.7227-2.92 10.0781-4.37 20.7773-4.37 32.0273 0 11.4531 1.56 22.3911 4.69 32.8201 3.12 10.5 7.73 19.68 13.9 27.5 6.25 7.813 13.99 14.063 23.28 18.75 9.38 4.68 20.24 7.031 32.66 7.031 15.63 0 28.44-3.398 38.44-10.16 10-6.8 16.48-15.16 19.53-25.16v128.129h24.53v-259.05853h-19.22l-2.81 28.75003h-1.41c-5.62-8.6797-13.82-16.3321-24.53-22.9688-10.74-6.64061-23.55-9.99998-38.43-9.99998zm2.81 20.61718c11.13 0 22.11 3.0117 32.97 9.0703 10.93 6.1328 19.61 14.9219 26.09 26.4024v51.4104c-4.18 13.199-11.21 23.59-21.09 31.09-9.93 7.5-21.06 11.25-33.44 11.25-8.13 0-15.43-1.68-21.88-5-6.48-3.243-11.95-7.77-16.4-13.59-4.38-5.864-7.82-12.891-10.32-21.102-2.42-8.121-3.59-17.1092-3.59-26.8709 0-7.418.82-14.8399 2.5-22.3399 1.64-7.5 4.3-14.2187 7.97-20.1601 3.75-5.9375 8.63-10.7774 14.69-14.5274 6.13-3.75 13.63-5.6328 22.5-5.6328z" fill="#0080a5"/></g></svg>
